<svg width="144" height="26" viewBox="0 0 144 26" fill="none" xmlns="http://www.w3.org/2000/svg">
<g clip-path="url(#clip0_2725_24634)">
<path d="M13.0471 7.70312L11.9892 8.59304L12.0099 18.4235L7.07322 22.6041L2.13648 18.4235V8.86208V7.7238L0 9.48295L0.0207438 19.6239L1.28604 20.638L7.11469 25.5014L13.2545 20.3275L14.1257 19.6239V8.59304L13.0471 7.70312Z" fill="#005EE0"/>
<path d="M20.1791 6.36979L18.9139 5.35688L13.0852 0.499023L6.94541 5.68763L6.07422 6.36979V17.4085L7.13207 18.2974L8.18994 17.3878V7.56875L13.1267 3.39305L18.0634 7.58943V17.1191V18.2767L20.1999 16.4989L20.1791 6.36979Z" fill="#005EE0"/>
<path d="M41.6636 8.2583H39.9492V17.8597H41.6636V8.2583Z" fill="#0A0B0D"/>
<path d="M49.2207 15.0676L46.3837 8.2583H44.2637L48.325 17.8597H50.1465L54.2078 8.2583H52.0577L49.2207 15.0676Z" fill="#0A0B0D"/>
<path d="M73.0487 14.0419C74.0603 13.5861 74.6072 12.6744 74.6072 11.4208C74.6072 10.4521 74.3064 9.68283 73.705 9.11302C73.1034 8.54321 72.3379 8.2583 71.381 8.2583H66.9517V17.8597H68.7562V14.5262H70.998L73.0215 17.8597H75.1813L72.8573 14.1559C72.9121 14.1274 72.994 14.0989 73.0487 14.0419ZM72.666 12.0191C72.4199 12.4464 71.9277 12.6744 71.1897 12.6744H68.7288V10.0817H71.2441C71.7363 10.0817 72.1191 10.1957 72.3927 10.4521C72.666 10.68 72.7754 10.9934 72.7754 11.4208C72.8026 11.6772 72.7754 11.8766 72.666 12.0191Z" fill="#0A0B0D"/>
<path d="M85.1293 13.045C84.8008 12.849 84.4424 12.6811 84.0242 12.5411C83.6358 12.4291 83.2474 12.3172 82.8292 12.2332C82.4411 12.1492 82.0527 12.0652 81.6645 11.9813C81.3059 11.8973 81.0072 11.8133 80.7385 11.7014C80.4996 11.6174 80.3203 11.5054 80.171 11.3934C80.0513 11.2815 80.0513 11.1975 80.0513 11.1695C80.0513 11.0295 80.0814 10.8896 80.1112 10.7496C80.141 10.6656 80.2008 10.5537 80.3203 10.4697C80.4397 10.3577 80.6488 10.2737 80.8877 10.1898C81.1567 10.1058 81.4852 10.0498 81.9034 10.0498C82.3216 10.0498 82.68 10.0778 82.9489 10.1618C83.8747 10.4137 84.0242 10.8616 84.0838 11.1975L84.1437 11.5894H86.115L86.0852 11.1135C86.0554 10.3017 85.667 9.62992 84.9801 9.09807C84.2631 8.53822 83.2474 8.2583 81.9931 8.2583C80.7385 8.2583 79.7826 8.51022 79.1255 9.0141C78.4384 9.54594 78.1098 10.2178 78.1098 11.0575C78.1098 11.6734 78.3189 12.1772 78.7073 12.5411C79.0657 12.877 79.5137 13.129 80.0215 13.3249C80.4996 13.5209 81.0372 13.6608 81.6047 13.7728C82.1423 13.8848 82.6201 13.9967 83.0684 14.1367C83.4866 14.2487 83.8151 14.3886 84.0838 14.5566C84.2631 14.6685 84.3528 14.8085 84.3528 15.0045C84.3528 15.2844 84.3528 16.0681 82.2618 16.0681C81.5448 16.0681 80.9476 15.9562 80.5294 15.7322C80.0814 15.5083 79.8723 15.1724 79.8425 14.7525L79.8124 14.3326H77.7812L77.8411 14.8085C77.9308 15.7602 78.349 16.488 79.0359 17.0199C79.7826 17.5797 80.8579 17.8597 82.2618 17.8597C83.4866 17.8597 84.4722 17.6077 85.1889 17.1599C85.9657 16.656 86.3539 15.9282 86.3539 14.9765C86.3241 14.1647 85.9357 13.4929 85.1293 13.045Z" fill="#0A0B0D"/>
<path d="M95.8673 8.2583L93.0832 12.1615L90.2989 8.2583H87.9541L92.1161 14.0989V17.8597H94.0504V14.0989L98.2414 8.2583H95.8673Z" fill="#0A0B0D"/>
<path d="M58.7083 10.1102H58.7668H64.3224V8.2583H56.8369V8.28679H56.8076V17.8312H56.8369V17.8597H63.3868H64.3517V16.0363H58.7083V15.381V13.9849H63.3868H64.3517V12.1615H58.7083V10.1102Z" fill="#0A0B0D"/>
<path d="M34.4759 8.60018C33.9134 8.37225 33.3505 8.2583 32.7284 8.2583H28.4631V9.59737H28.4336V17.8597H30.1516H30.4478H32.7284C33.3208 17.8597 33.9134 17.7457 34.4759 17.5178C35.0388 17.2898 35.5423 16.9764 35.9571 16.5491C36.8752 15.6374 37.3492 14.4408 37.3492 13.0447C37.3492 11.6202 36.8752 10.4521 35.9571 9.54037C35.5127 9.14151 35.0388 8.82811 34.4759 8.60018ZM34.6537 15.21C34.1502 15.7798 33.4985 16.0648 32.6988 16.0648H30.4478V10.1102H32.6988C33.4985 10.1102 34.1502 10.3951 34.6537 10.9649C35.1572 11.5347 35.3943 12.2185 35.3943 13.0732C35.3943 13.9279 35.1572 14.6117 34.6537 15.21Z" fill="#0A0B0D"/>
<path d="M117.67 13.608C117.67 14.4246 117.444 15.0159 116.993 15.4382C116.599 15.8042 116.091 15.9732 115.443 15.9732C114.795 15.9732 114.288 15.8042 113.893 15.4382C113.414 15.0159 113.188 14.3964 113.188 13.5799V8.2583H111.328V13.608C111.328 14.8751 111.723 15.8887 112.484 16.6771C113.245 17.4655 114.231 17.8597 115.443 17.8597C116.655 17.8597 117.641 17.4655 118.402 16.6771C119.164 15.8887 119.558 14.8751 119.558 13.608V8.2583H117.698V13.608H117.67Z" fill="#0A0B0D"/>
<path d="M128.813 14.6402L124.018 8.2583H122.158V17.8597H124.076V11.4208L128.871 17.8597H130.731V8.2583H128.813V14.6402Z" fill="#0A0B0D"/>
<path d="M140.85 9.56885C140.434 9.14151 139.929 8.82811 139.364 8.60018C138.799 8.37225 138.235 8.2583 137.61 8.2583H133.331V17.8597H137.61C138.205 17.8597 138.799 17.7457 139.364 17.5178C139.929 17.2898 140.434 16.9764 140.85 16.5491C141.771 15.6374 142.247 14.4408 142.247 13.0447C142.247 11.6772 141.771 10.4806 140.85 9.56885ZM139.542 15.21C139.037 15.7798 138.383 16.0648 137.581 16.0648H135.293V10.1102H137.581C138.383 10.1102 139.037 10.3951 139.542 10.9649C140.047 11.5347 140.285 12.2185 140.285 13.0732C140.285 13.9279 140.047 14.6117 139.542 15.21Z" fill="#0A0B0D"/>
<path d="M102.828 10.1157H102.889H108.697V8.2583H100.872V8.28687H100.841V17.8597H102.828V15.4022V14.002H107.719H108.728V12.1731H102.828V10.1157Z" fill="#0A0B0D"/>
</g>
<defs>
<clipPath id="clip0_2725_24634">
<rect width="144" height="25.0024" fill="white" transform="translate(0 0.499023)"/>
</clipPath>
</defs>
</svg>
