<svg width="177" height="31" viewBox="0 0 177 31" fill="none" xmlns="http://www.w3.org/2000/svg">
<path d="M16.1266 8.90689L14.819 10.0069L14.8447 22.1577L8.74274 27.325L2.64077 22.1577V10.3394V8.93245L0 11.1068L0.02564 23.6413L1.58959 24.8948L8.79399 30.9062L16.383 24.5111L17.4598 23.6413V10.0069L16.1266 8.90689Z" fill="white"/>
<path d="M24.9422 7.25885L23.3783 6.00685L16.1739 0.00238037L8.58491 6.41567L7.50809 7.25885V20.9031L8.81563 22.0017L10.1232 20.8775V8.7408L16.2252 3.5795L22.3271 8.76636V20.5453V21.9762L24.9679 19.7788L24.9422 7.25885Z" fill="white"/>
<path d="M51.4974 9.5936H49.3784V21.4612H51.4974V9.5936Z" fill="white"/>
<path d="M60.8382 18.0101L57.3316 9.5936H54.7112L59.731 21.4612H61.9825L67.0024 9.5936H64.3448L60.8382 18.0101Z" fill="white"/>
<path d="M90.2904 16.7423C91.5408 16.1789 92.2168 15.052 92.2168 13.5025C92.2168 12.3052 91.845 11.3544 91.1017 10.6501C90.3581 9.94575 89.4119 9.5936 88.2291 9.5936H82.7543V21.4612H84.9848V17.341H87.7557L90.2568 21.4612H92.9264L90.0539 16.8832C90.1215 16.848 90.2228 16.8128 90.2904 16.7423ZM89.8174 14.242C89.5132 14.7703 88.9048 15.052 87.9926 15.052H84.9508V11.8474H88.0599C88.6683 11.8474 89.1414 11.9883 89.4795 12.3052C89.8174 12.5869 89.9526 12.9743 89.9526 13.5025C89.9863 13.8194 89.9526 14.066 89.8174 14.242Z" fill="white"/>
<path d="M105.222 15.5101C104.816 15.2679 104.373 15.0603 103.857 14.8873C103.376 14.7489 102.896 14.6105 102.379 14.5067C101.9 14.4029 101.42 14.2991 100.94 14.1953C100.497 14.0915 100.127 13.9877 99.7952 13.8493C99.4999 13.7455 99.2783 13.6071 99.0938 13.4687C98.9459 13.3303 98.9459 13.2265 98.9459 13.1919C98.9459 13.0189 98.983 12.8459 99.0199 12.6729C99.0567 12.5691 99.1307 12.4307 99.2783 12.3269C99.426 12.1885 99.6844 12.0847 99.9797 11.9809C100.312 11.8772 100.718 11.808 101.235 11.808C101.752 11.808 102.195 11.8425 102.527 11.9463C103.672 12.2578 103.857 12.8113 103.93 13.2265L104.004 13.7109H106.441L106.404 13.1227C106.367 12.1194 105.887 11.289 105.038 10.6316C104.152 9.93959 102.896 9.5936 101.346 9.5936C99.7952 9.5936 98.6138 9.90498 97.8016 10.5278C96.9522 11.1852 96.5461 12.0156 96.5461 13.0535C96.5461 13.8147 96.8046 14.4375 97.2847 14.8873C97.7276 15.3025 98.2813 15.6139 98.9091 15.8561C99.4999 16.0983 100.164 16.2713 100.866 16.4097C101.53 16.5481 102.121 16.6865 102.675 16.8595C103.192 16.9979 103.598 17.1709 103.93 17.3785C104.152 17.5169 104.263 17.6899 104.263 17.9321C104.263 18.2781 104.263 19.2468 101.678 19.2468C100.792 19.2468 100.054 19.1085 99.5368 18.8316C98.983 18.5548 98.7246 18.1397 98.6877 17.6206L98.6506 17.1017H96.14L96.214 17.6899C96.3248 18.8663 96.8417 19.7658 97.6908 20.4232C98.6138 21.1152 99.9429 21.4612 101.678 21.4612C103.192 21.4612 104.41 21.1498 105.296 20.5962C106.256 19.9734 106.736 19.0738 106.736 17.8975C106.699 16.8941 106.219 16.0637 105.222 15.5101Z" fill="white"/>
<path d="M118.495 9.5936L115.054 14.4181L111.612 9.5936H108.714L113.858 16.8128V21.4612H116.249V16.8128L121.429 9.5936H118.495Z" fill="white"/>
<path d="M72.5652 11.8826H72.6376H79.5044V9.5936H70.2521V9.62881H70.2159V21.426H70.2521V21.4612H78.3481H79.5406V19.2074H72.5652V18.3974V16.6719H78.3481H79.5406V14.4181H72.5652V11.8826Z" fill="white"/>
<path d="M42.6129 10.0161C41.9175 9.73442 41.2219 9.59357 40.4529 9.59357H35.1809V11.2487H35.1443V21.4612H37.2679H37.634H40.4529C41.185 21.4612 41.9175 21.3203 42.6129 21.0386C43.3086 20.7569 43.9309 20.3695 44.4437 19.8413C45.5785 18.7144 46.1643 17.2353 46.1643 15.5098C46.1643 13.749 45.5785 12.3052 44.4437 11.1782C43.8944 10.6852 43.3086 10.2979 42.6129 10.0161ZM42.8326 18.1861C42.2103 18.8904 41.4048 19.2426 40.4163 19.2426H37.634V11.8826H40.4163C41.4048 11.8826 42.2103 12.2347 42.8326 12.939C43.4549 13.6434 43.748 14.4885 43.748 15.545C43.748 16.6014 43.4549 17.4466 42.8326 18.1861Z" fill="white"/>
<path d="M145.444 16.206C145.444 17.2153 145.165 17.9462 144.607 18.4682C144.12 18.9206 143.493 19.1294 142.691 19.1294C141.89 19.1294 141.263 18.9206 140.775 18.4682C140.183 17.9462 139.905 17.1805 139.905 16.1712V9.5936H137.605V16.206C137.605 17.7721 138.093 19.025 139.034 19.9995C139.974 20.974 141.193 21.4612 142.691 21.4612C144.189 21.4612 145.409 20.974 146.349 19.9995C147.29 19.025 147.778 17.7721 147.778 16.206V9.5936H145.478V16.206H145.444Z" fill="white"/>
<path d="M159.217 17.4819L153.29 9.5936H150.991V21.4612H153.362V13.5025L159.289 21.4612H161.588V9.5936H159.217V17.4819Z" fill="white"/>
<path d="M174.095 11.2135C173.581 10.6853 172.956 10.2979 172.258 10.0162C171.56 9.73445 170.862 9.5936 170.091 9.5936H164.801V21.4612H170.091C170.826 21.4612 171.56 21.3203 172.258 21.0386C172.956 20.7569 173.581 20.3695 174.095 19.8413C175.234 18.7144 175.821 17.2353 175.821 15.5098C175.821 13.8194 175.234 12.3404 174.095 11.2135ZM172.479 18.1862C171.854 18.8905 171.046 19.2426 170.054 19.2426H167.226V11.8826H170.054C171.046 11.8826 171.854 12.2347 172.479 12.939C173.103 13.6434 173.397 14.4885 173.397 15.545C173.397 16.6015 173.103 17.4467 172.479 18.1862Z" fill="white"/>
<path d="M127.099 11.8894H127.175H134.354V9.5936H124.681V9.6289H124.643V21.4612H127.099V18.4237V16.693H133.144H134.391V14.4325H127.099V11.8894Z" fill="white"/>
</svg>
